<svg xmlns="http://www.w3.org/2000/svg" id="Camada_1" viewBox="0 0 460.6 90.5"><defs><style> .st0 { fill: #fff; } .st1 { fill: #005d8e; } .st2 { fill: #e8336d; } </style></defs><path class="st1" d="M304.7,11.6h9v40.1h-9V11.6ZM385,11.6v7.7h-12.1v32.4h-9V19.3h-12.1v-7.7h33.2ZM412.9,51.7c-.5-1.4-.9-2.8-1.4-4.3-.5-1.5-1-2.9-1.5-4.4h-15.7c-.5,1.5-1,2.9-1.5,4.4-.5,1.5-1,2.9-1.4,4.3h-9.4c1.5-4.3,2.9-8.3,4.3-12,1.4-3.7,2.7-7.1,4-10.4,1.3-3.2,2.6-6.3,3.8-9.2,1.3-2.9,2.6-5.8,3.9-8.5h8.6c1.3,2.8,2.6,5.6,3.9,8.5,1.3,2.9,2.6,6,3.9,9.2,1.3,3.2,2.6,6.7,4,10.4,1.4,3.7,2.8,7.7,4.3,12h-9.7ZM402.1,20.7c-.2.6-.5,1.4-.9,2.4-.4,1-.8,2.2-1.3,3.5-.5,1.3-1.1,2.8-1.7,4.3-.6,1.6-1.2,3.2-1.9,5h11.5c-.6-1.7-1.2-3.4-1.8-5-.6-1.6-1.1-3-1.6-4.4-.5-1.3-1-2.5-1.4-3.5-.4-1-.7-1.8-.9-2.4M439.5,11.1c6,0,10.6,1.1,13.8,3.2,3.2,2.1,4.8,5.5,4.8,10s-.6,5.1-1.9,6.9c-1.3,1.8-3.2,3.1-5.6,4.1.8,1,1.7,2.2,2.5,3.4.9,1.3,1.8,2.6,2.6,4.1.9,1.4,1.7,2.9,2.5,4.4.8,1.5,1.6,3,2.3,4.5h-10.1c-.7-1.3-1.5-2.6-2.2-4-.8-1.4-1.5-2.7-2.3-3.9-.8-1.3-1.6-2.5-2.4-3.6-.8-1.1-1.6-2.2-2.3-3.1h-4.5v14.6h-9V12.2c2-.4,4-.7,6.1-.8,2.1-.2,4-.2,5.6-.2M440,18.8c-.7,0-1.2,0-1.8,0-.5,0-1,0-1.5.1v10.9h2.5c3.4,0,5.8-.4,7.3-1.3,1.5-.8,2.2-2.3,2.2-4.3s-.7-3.4-2.2-4.2c-1.5-.8-3.7-1.2-6.6-1.2M333.2,44.5c1.2,0,2.2-.1,3-.3.8-.2,1.4-.5,1.9-.8.5-.4.8-.8,1-1.2.2-.5.3-1,.3-1.6,0-1.3-.6-2.3-1.8-3.1-1.2-.8-3.2-1.7-6.1-2.7-1.3-.4-2.5-1-3.8-1.5-1.3-.6-2.4-1.3-3.4-2.2-1-.9-1.8-1.9-2.4-3.2-.6-1.2-.9-2.7-.9-4.5s.3-3.4,1-4.8c.7-1.4,1.6-2.6,2.8-3.6,1.2-1,2.7-1.8,4.4-2.3,1.7-.5,3.7-.8,5.9-.8s4.8.3,6.7.8c1.9.6,3.4,1.2,4.7,1.8l-2.5,6.8c-1.1-.6-2.3-1-3.6-1.5-1.3-.4-2.9-.6-4.7-.6s-3.6.3-4.5.9c-.9.6-1.4,1.5-1.4,2.6s.2,1.3.5,1.8c.3.5.8.9,1.4,1.3.6.4,1.3.7,2.1,1.1.8.3,1.7.6,2.6,1,2,.7,3.7,1.5,5.2,2.2,1.5.7,2.7,1.6,3.7,2.5,1,1,1.7,2.1,2.2,3.4.5,1.3.7,2.9.7,4.7,0,3.6-1.3,6.4-3.8,8.3-2.5,2-6.3,3-11.4,3s-3.2-.1-4.6-.3c-1.4-.2-2.6-.5-3.6-.7-1.1-.3-2-.6-2.7-.9-.8-.3-1.4-.6-1.9-.9l2.4-6.9c1.1.6,2.6,1.2,4.2,1.7,1.7.5,3.7.7,6.2.7"></path><path class="st1" d="M28,90.5c-.8,0-1.6-.3-2.2-.6-.6-.4-1.2-.9-1.7-1.6L.6,47.5c-.4-.7-.5-1.5-.6-2.2,0-.8.1-1.5.6-2.2L24.1,2.2c.4-.7,1-1.2,1.7-1.6C26.4.3,27.1,0,28,0h47.1c.8,0,1.6.3,2.2.6.6.4,1.2.9,1.7,1.6h0l23.5,40.8c.4.7.6,1.5.6,2.2,0,.8-.1,1.5-.6,2.2l-23.5,40.8c-.4.7-1,1.2-1.7,1.6-.7.4-1.4.6-2.2.6h0s-47.1,0-47.1,0Z"></path><path class="st0" d="M29.5,87.6c-.8,0-1.5-.3-2.1-.6-.6-.4-1.1-.8-1.5-1.5L3.8,47.3c-.4-.7-.5-1.4-.5-2.1,0-.7.1-1.4.5-2.1L25.9,5c.4-.7.9-1.1,1.5-1.5.6-.3,1.3-.6,2.1-.6h44.1c.8,0,1.5.2,2.1.6.6.4,1.2.8,1.6,1.5h0l22,38.1c.4.7.5,1.4.5,2.1,0,.7-.1,1.4-.5,2.1l-22,38.2c-.4.7-.9,1.1-1.6,1.5-.6.3-1.3.6-2.1.6H29.5Z"></path><path class="st1" d="M31,84.7c-.7,0-1.4-.2-1.9-.6-.6-.3-1.1-.8-1.4-1.4L7.1,47.2c-.4-.6-.5-1.3-.5-1.9,0-.7.1-1.3.5-1.9L27.6,7.8c.4-.6.9-1.1,1.4-1.4.6-.3,1.2-.5,1.9-.6h41c.7,0,1.4.2,1.9.6.6.3,1.1.8,1.4,1.4h0l20.5,35.5c.4.6.5,1.3.5,1.9,0,.7-.1,1.3-.5,1.9l-20.5,35.5c-.4.6-.9,1.1-1.4,1.4-.6.3-1.2.5-1.9.5H31Z"></path><path class="st0" d="M17.5,51.8h0s0,0,0,0c-.3-4.3.2-8.2,1.6-11.9,1.4-3.7,3.6-7,6.6-10.2,5.7-6,13.3-9.9,21.5-11.6,1.6-.3,3.2-.6,4.9-.7,1.7-.2,3.3-.2,5-.2,2.5,0,5,.3,7.5.7,0,0,8.6,7,11.3,10.2h-4.7s-14.1,0-14.1,0c-1.2,0-2.5,0-3.3.4-.5.2-.9.7-1,1.5,0,.8.2,1.3.7,1.7h0c.7.6,1.9.9,3.3,1.3h0c4.1.9,8,1.8,11.6,3.2,3.8,1.4,7.3,3.2,10.6,6,5.8,4.8,7.8,10.8,6.2,16.9-1.1,4.2-3.5,7-4.5,8H22.8c-1-1.5-4.8-7.4-5.3-14.9"></path><path class="st2" d="M137.9,11.6h9v40.1h-9v-17h-15.2v17h-9V11.6h9v15.3h15.2v-15.3ZM183.1,51.7c-.5-1.4-.9-2.8-1.4-4.3-.5-1.5-1-2.9-1.5-4.4h-15.7c-.5,1.5-1,2.9-1.5,4.4-.5,1.5-1,2.9-1.4,4.3h-9.4c1.5-4.3,2.9-8.3,4.3-12,1.4-3.7,2.7-7.1,4-10.4,1.3-3.2,2.6-6.3,3.8-9.2,1.3-2.9,2.6-5.8,3.9-8.5h8.6c1.3,2.8,2.6,5.6,3.9,8.5,1.3,2.9,2.6,6,3.9,9.2,1.3,3.2,2.6,6.7,4,10.4,1.4,3.7,2.8,7.7,4.3,12h-9.7ZM172.2,20.7c-.2.6-.5,1.4-.9,2.4-.4,1-.8,2.2-1.3,3.5-.5,1.3-1.1,2.8-1.7,4.3-.6,1.6-1.2,3.2-1.9,5h11.5c-.6-1.7-1.2-3.4-1.8-5-.6-1.6-1.1-3-1.6-4.4-.5-1.3-1-2.5-1.4-3.5-.4-1-.7-1.8-.9-2.4M224.7,43.9v7.8h-26.8V11.6h9v32.4h17.8ZM230.5,51.7V11.6h27.1v7.6h-18.1v7.9h16v7.4h-16v9.7h19.4v7.6h-28.4ZM289.8,51.7c-1.1-2.2-2.4-4.5-3.7-6.8-1.3-2.3-2.9-4.2-4.6-5.8-.5.6-1.2,1.4-2,2.5-.8,1.1-1.7,2.2-2.5,3.4-.8,1.2-1.6,2.4-2.3,3.7-.7,1.3-1.3,2.3-1.6,3h-10.3c1.7-3.1,3.7-6.4,6-9.7,2.3-3.3,4.9-6.9,7.7-10.6l-13.1-19.8h10.9l7.6,11.6,7.8-11.6h10.3l-13,19.4c3.4,4.3,6.2,8.2,8.4,11.8,2.2,3.6,3.9,6.6,5.2,9h-10.8Z"></path><path class="st1" d="M114.9,78.4h-1.3v-22.3h1.3v22.3ZM120.7,67.8v10.6h-1.3v-13.7h1.3v.9c1.1-1.1,2.5-1.7,4-1.7s2.9.5,4,1.5c1,1,1.5,2.3,1.6,3.8v9.2h-1.3v-9.1c0-1.2-.4-2.2-1.3-3-.8-.8-1.8-1.2-3-1.2s-2.1.4-3,1.2c-.5.5-.8.9-1,1.4M149.2,78.4h-1.3v-2.8c-.2.3-.5.6-.8.9-1.5,1.5-3.3,2.2-5.4,2.2s-3.9-.7-5.4-2.2c-1.5-1.5-2.2-3.3-2.2-5.4s.7-3.9,2.2-5.4c1.5-1.5,3.3-2.2,5.4-2.2s3.9.7,5.4,2.2c.3.3.6.6.8.9v-10.6h1.3v22.3ZM147.9,72.4v-2.5c-.2-1.2-.8-2.3-1.7-3.2-1.2-1.2-2.7-1.9-4.5-1.9s-3.2.6-4.5,1.9c-1.2,1.2-1.9,2.7-1.9,4.5s.6,3.2,1.9,4.5c1.2,1.2,2.7,1.8,4.5,1.8s3.2-.6,4.5-1.9c.9-.9,1.5-2,1.7-3.2M159,78.6c-1.7,0-3.1-.5-4.1-1.5-1-1-1.5-2.3-1.6-3.8v-8.5h1.3v8.4c0,1.2.4,2.2,1.3,3,.8.8,1.9,1.2,3.1,1.2s2.2-.4,3-1.2c.8-.8,1.3-1.8,1.3-3v-8.4h1.3v8.5c0,1.5-.5,2.8-1.6,3.8-1,1-2.3,1.5-3.9,1.5M162,59l-3.4,2.6h-1.2l2.3-2.6h2.3ZM172.4,71.4c-1.1-.6-1.8-1.1-2.2-1.5-.6-.6-1-1.4-1-2.3s.3-1.7,1-2.3c.6-.6,1.4-1,2.3-1s1.7.3,2.3.9c.6.6.9,1.2.9,2h0c0,0-1.1.5-1.1.5,0-.7-.3-1.2-.7-1.6-.4-.4-.8-.5-1.4-.5s-1,.2-1.4.6c-.4.4-.6.9-.6,1.4s.2,1,.6,1.4c.2.2.7.6,1.5,1.1,1.2.7,2,1.2,2.5,1.7.8.8,1.2,1.8,1.2,2.9s-.4,2.1-1.2,2.9c-.8.8-1.7,1.2-2.9,1.2s-2.1-.4-2.9-1.2c-.8-.8-1.2-1.7-1.2-2.6l1.2-.3c0,.8.3,1.5.8,2.1.6.5,1.2.8,2,.8s1.4-.3,2-.8c.6-.5.8-1.2.8-2s-.3-1.4-.8-2c-.3-.3-.9-.7-1.8-1.3M182,64.7v-5.8h1.3v5.8h2.8v1.3h-2.8v12.4h-1.3v-12.4h-2.8v-1.3h2.8ZM189.4,64.7h1.3v2.5c.3-.4.6-.7.9-1.1,1.1-1.1,2.2-1.7,3.4-1.7v1.4c-.8,0-1.6.5-2.5,1.3-1.2,1.2-1.8,2.6-1.9,4.3v7.1h-1.3v-13.7ZM199.6,78.4h-1.3v-13.7h1.3v13.7ZM199,59.8c.3,0,.6.1.9.4.2.2.4.5.4.9s-.1.7-.4.9c-.2.2-.5.4-.9.4s-.6-.1-.9-.4c-.2-.2-.4-.5-.4-.9s.1-.6.4-.9c.2-.2.5-.4.9-.4M218.9,78.4h-1.3v-2.8c-.2.3-.5.6-.8.9-1.5,1.5-3.3,2.2-5.4,2.2s-3.9-.7-5.4-2.2c-1.5-1.5-2.2-3.3-2.2-5.4s.7-3.9,2.2-5.4c1.5-1.5,3.3-2.2,5.4-2.2s3.9.7,5.4,2.2c.3.3.6.6.8.9v-1.9h1.3v13.7ZM217.6,72.4v-2.5c-.2-1.2-.8-2.3-1.7-3.2-1.2-1.2-2.7-1.9-4.5-1.9s-3.2.6-4.5,1.9c-1.2,1.2-1.9,2.7-1.9,4.5s.6,3.2,1.9,4.5c1.2,1.2,2.7,1.8,4.5,1.8s3.2-.6,4.5-1.9c.9-.9,1.5-2,1.7-3.2M242.7,56.1v1.3h-8.5v9.3h8.5v1.3h-8.5v10.5h-1.3v-22.3h9.8ZM260.7,78.4h-1.3v-2.8c-.2.3-.5.6-.8.9-1.5,1.5-3.3,2.2-5.4,2.2s-3.9-.7-5.4-2.2c-1.5-1.5-2.2-3.3-2.2-5.4s.7-3.9,2.2-5.4c1.5-1.5,3.3-2.2,5.4-2.2s3.9.7,5.4,2.2c.3.3.6.6.8.9v-1.9h1.3v13.7ZM259.5,72.4v-2.5c-.2-1.2-.8-2.3-1.7-3.2-1.2-1.2-2.7-1.9-4.5-1.9s-3.2.6-4.5,1.9c-1.2,1.2-1.9,2.7-1.9,4.5s.6,3.2,1.9,4.5c1.2,1.2,2.7,1.8,4.5,1.8s3.2-.6,4.5-1.9c.9-.9,1.5-2,1.7-3.2M264.9,64.7h1.3v2.5c.3-.4.6-.7.9-1.1,1.1-1.1,2.2-1.7,3.4-1.7v1.4c-.8,0-1.6.5-2.5,1.3-1.2,1.2-1.8,2.6-1.9,4.3v7.1h-1.3v-13.7ZM273.7,64.7h1.3v.3c.8-.8,1.7-1.1,2.8-1.1s2.1.4,2.9,1.2c.2.2.4.4.6.7.2-.2.3-.5.6-.7.8-.8,1.7-1.2,2.9-1.2s2.1.4,2.9,1.2c.8.8,1.1,1.7,1.2,2.7v10.6h-1.3v-10.6h0c0-.7-.3-1.3-.8-1.9-.6-.6-1.2-.8-2-.8s-1.4.3-2,.8c-.6.5-.8,1.2-.8,2v10.4h-1.3v-10.6h0c0-.7-.3-1.3-.8-1.9-.6-.6-1.2-.8-2-.8s-1.4.3-2,.8c-.5.5-.8,1.1-.8,1.7v10.7h-1.3v-13.7ZM307.6,78.4h-1.3v-2.8c-.2.3-.5.6-.8.9-1.5,1.5-3.3,2.2-5.4,2.2s-3.9-.7-5.4-2.2c-1.5-1.5-2.2-3.3-2.2-5.4s.7-3.9,2.2-5.4c1.5-1.5,3.3-2.2,5.4-2.2s3.9.7,5.4,2.2c.3.3.6.6.8.9v-1.9h1.3v13.7ZM306.4,72.4v-2.5c-.2-1.2-.8-2.3-1.7-3.2-1.2-1.2-2.7-1.9-4.5-1.9s-3.2.6-4.5,1.9c-1.2,1.2-1.9,2.7-1.9,4.5s.6,3.2,1.9,4.5c1.2,1.2,2.7,1.8,4.5,1.8s3.2-.6,4.5-1.9c.9-.9,1.5-2,1.7-3.2M323.6,75.1l1.3.5c-.2.3-.5.7-.8,1-1.5,1.5-3.3,2.2-5.4,2.2s-3.9-.7-5.4-2.2c-1.5-1.5-2.2-3.3-2.2-5.4s.7-3.9,2.2-5.4c1.5-1.5,3.3-2.2,5.4-2.2s3.9.7,5.4,2.2c.3.3.6.6.8.9l-1.3.5c-.1-.2-.3-.3-.4-.5-1.2-1.2-2.7-1.8-4.5-1.8s-3.2.6-4.5,1.9c-1.2,1.2-1.9,2.7-1.9,4.5s.6,3.2,1.9,4.5c1.2,1.2,2.7,1.9,4.5,1.9s3.2-.6,4.5-1.9c.2-.2.3-.3.4-.5M330.9,75.8c1.2,1.1,2.6,1.6,4.2,1.6s3.2-.6,4.5-1.9c.2-.2.3-.3.4-.5l1.3.5c-.2.3-.5.7-.8,1-1.5,1.5-3.3,2.2-5.4,2.2s-3.9-.7-5.4-2.2c-1.5-1.5-2.2-3.3-2.2-5.4s.7-3.9,2.2-5.4c1.5-1.5,3.3-2.2,5.4-2.2s3.4.5,4.8,1.6c.2.2.4.4.7.6,0,0,.2.2.2.3l-1,.9-8.9,8.9ZM338.9,66.1c-1.1-.8-2.4-1.3-3.8-1.3s-3.2.6-4.5,1.9c-1.2,1.2-1.9,2.7-1.9,4.5s.4,2.7,1.3,3.8l8.9-8.9ZM335,59.9l3.3,3.3h-1.5l-2.6-2-2.5,2h-1.5l3.2-3.3h1.4ZM350.3,78.6c-1.7,0-3.1-.5-4.1-1.5-1-1-1.5-2.3-1.6-3.8v-8.5h1.3v8.4c0,1.2.4,2.2,1.3,3,.8.8,1.9,1.2,3.1,1.2s2.2-.4,3-1.2c.8-.8,1.3-1.8,1.3-3v-8.4h1.3v8.5c0,1.5-.5,2.8-1.6,3.8-1,1-2.3,1.5-3.9,1.5M362,64.7v-5.8h1.3v5.8h2.8v1.3h-2.8v12.4h-1.3v-12.4h-2.8v-1.3h2.8ZM370.9,78.4h-1.3v-13.7h1.3v13.7ZM370.3,59.8c.3,0,.6.1.9.4.2.2.4.5.4.9s-.1.7-.4.9c-.2.2-.5.4-.9.4s-.6-.1-.9-.4c-.2-.2-.4-.5-.4-.9s.1-.6.4-.9c.2-.2.5-.4.9-.4M387.1,75.1l1.3.5c-.2.3-.5.7-.8,1-1.5,1.5-3.3,2.2-5.4,2.2s-3.9-.7-5.4-2.2c-1.5-1.5-2.2-3.3-2.2-5.4s.7-3.9,2.2-5.4c1.5-1.5,3.3-2.2,5.4-2.2s3.9.7,5.4,2.2c.3.3.6.6.8.9l-1.3.5c-.1-.2-.3-.3-.4-.5-1.2-1.2-2.7-1.8-4.5-1.8s-3.2.6-4.5,1.9c-1.2,1.2-1.9,2.7-1.9,4.5s.6,3.2,1.9,4.5c1.2,1.2,2.7,1.9,4.5,1.9s3.2-.6,4.5-1.9c.2-.2.3-.3.4-.5M406.6,78.4h-1.3v-2.8c-.2.3-.5.6-.8.9-1.5,1.5-3.3,2.2-5.4,2.2s-3.9-.7-5.4-2.2c-1.5-1.5-2.2-3.3-2.2-5.4s.7-3.9,2.2-5.4c1.5-1.5,3.3-2.2,5.4-2.2s3.9.7,5.4,2.2c.3.3.6.6.8.9v-1.9h1.3v13.7ZM405.3,72.4v-2.5c-.2-1.2-.8-2.3-1.7-3.2-1.2-1.2-2.7-1.9-4.5-1.9s-3.2.6-4.5,1.9c-1.2,1.2-1.9,2.7-1.9,4.5s.6,3.2,1.9,4.5c1.2,1.2,2.7,1.8,4.5,1.8s3.2-.6,4.5-1.9c.9-.9,1.5-2,1.7-3.2M426.2,66c-1.6-.5-2.8-1.3-3.8-2.2-.9-.9-1.4-2-1.4-3.3s.5-2.4,1.4-3.3c.9-.9,2-1.4,3.4-1.4s2.4.5,3.3,1.4c.5.5.9,1,1.1,1.7l-1.1.4c-.2-.5-.4-.9-.8-1.3-.7-.7-1.5-1-2.5-1s-1.8.3-2.5,1c-.7.7-1,1.5-1,2.5s.3,1.8,1,2.5c.6.6,1.5,1.2,2.6,1.7,1.8.6,3.3,1.5,4.5,2.7,1.3,1.3,1.9,2.8,1.9,4.7s-.6,3.4-1.9,4.7c-1.3,1.3-2.9,1.9-4.7,1.9s-3.4-.7-4.7-2c-1-1-1.7-2.2-1.9-3.6l1.2-.4c.1,1.2.6,2.3,1.5,3.2,1,1.1,2.3,1.6,3.8,1.6s2.8-.5,3.8-1.6c1.1-1.1,1.6-2.3,1.6-3.8s-.5-2.7-1.6-3.8c-.9-.9-2-1.7-3.4-2.2M442.5,56.1h1.4l-10.1,22.3h-1.4l10.1-22.3ZM455.7,68.6l-3.4-9.4-3.4,9.4h6.8ZM456.1,69.9h-7.7l-3.1,8.6h-1.3l8.3-22.8,8.3,22.8h-1.3l-3.1-8.6Z"></path></svg>