<?xml version="1.0" encoding="UTF-8"?>
<!DOCTYPE svg PUBLIC "-//W3C//DTD SVG 1.1//EN" "http://www.w3.org/Graphics/SVG/1.1/DTD/svg11.dtd">
<!-- Creator: CorelDRAW 2017 -->
<svg xmlns="http://www.w3.org/2000/svg" xml:space="preserve" width="96.0108mm" height="79.9248mm" version="1.1" style="shape-rendering:geometricPrecision; text-rendering:geometricPrecision; image-rendering:optimizeQuality; fill-rule:evenodd; clip-rule:evenodd"
viewBox="0 0 9601.08 7992.48"
 xmlns:xlink="http://www.w3.org/1999/xlink">
 <defs>
  <style type="text/css">
   <![CDATA[
    .fil2 {fill:#34792D}
    .fil1 {fill:#3A5E98}
    .fil6 {fill:#5165A6}
    .fil5 {fill:#E4E9F1}
    .fil3 {fill:#E9AE00}
    .fil4 {fill:#FAFBFC}
    .fil0 {fill:#FEFEFE;fill-rule:nonzero}
   ]]>
  </style>
 </defs>
 <g id="Camada_x0020_1">
  <metadata id="CorelCorpID_0Corel-Layer"/>
  <path class="fil0" d="M258.02 6986.78l0 -503.77 -179.49 0 0 -102.45 480.91 0 0 102.45 -178.65 0 0 503.77 -122.77 0zm380.86 0l0 -606.22 257.81 0c64.77,0 111.9,5.51 141.25,16.37 29.49,10.87 52.92,30.2 70.56,58 17.64,27.94 26.53,59.69 26.53,95.53 0,45.58 -13.27,83.12 -39.94,112.75 -26.67,29.63 -66.46,48.26 -119.52,56.02 26.39,15.38 48.12,32.32 65.19,50.8 17.22,18.49 40.36,51.37 69.43,98.5l73.94 118.25 -146.33 0 -87.77 -132.36c-31.47,-46.99 -53.06,-76.63 -64.77,-88.9 -11.57,-12.14 -23.85,-20.61 -36.83,-25.12 -13.13,-4.52 -33.73,-6.77 -61.95,-6.77l-24.84 0 0 253.15 -122.76 0zm122.76 -349.67l90.6 0c58.7,0 95.25,-2.54 109.92,-7.48 14.54,-4.94 26.11,-13.55 34.29,-25.69 8.33,-12.13 12.42,-27.37 12.42,-45.58 0,-20.46 -5.5,-36.83 -16.37,-49.53 -10.86,-12.55 -26.24,-20.46 -46,-23.7 -10.02,-1.41 -39.79,-2.12 -89.32,-2.12l-95.54 0 0 154.1zm484.44 349.67l0 -606.22 122.77 0 0 606.22 -122.77 0zm239.47 -606.22l242.43 0c48.12,0 83.82,1.98 107.38,5.93 23.71,4.09 44.74,12.42 63.36,24.98 18.63,12.7 34.15,29.49 46.57,50.52 12.42,21.02 18.63,44.73 18.63,70.83 0,28.23 -7.62,54.33 -22.86,77.9 -15.24,23.7 -35.99,41.34 -62.09,53.2 36.83,10.86 65.05,29.21 84.95,55.17 19.75,25.97 29.63,56.45 29.63,91.58 0,27.66 -6.35,54.47 -19.19,80.58 -12.84,26.1 -30.34,46.99 -52.64,62.65 -22.15,15.52 -49.53,25.12 -82.12,28.79 -20.32,2.11 -69.57,3.53 -147.61,4.09l-206.44 0 0 -606.22zm122.76 100.76l0 139.7 80.16 0c47.55,0 77.18,-0.71 88.75,-2.12 20.89,-2.4 37.4,-9.59 49.39,-21.59 12,-11.99 17.92,-27.66 17.92,-47.13 0,-18.77 -5.22,-33.87 -15.52,-45.58 -10.3,-11.71 -25.68,-18.77 -46,-21.17 -12.14,-1.41 -46.99,-2.11 -104.42,-2.11l-70.28 0zm0 240.45l0 162.56 113.46 0c44.02,0 72.11,-1.27 83.96,-3.67 18.2,-3.38 33.02,-11.43 44.45,-24.27 11.43,-12.98 17.22,-30.05 17.22,-51.64 0,-18.35 -4.38,-33.73 -13.27,-46.43 -8.75,-12.7 -21.59,-22.01 -38.24,-27.8 -16.65,-5.78 -52.92,-8.75 -108.66,-8.75l-98.92 0zm488.68 -341.21l122.76 0 0 328.51c0,52.21 1.56,85.94 4.52,101.32 5.22,24.84 17.5,44.87 36.97,59.83 19.62,15.1 46.29,22.58 80.15,22.58 34.29,0 60.26,-7.06 77.75,-21.31 17.5,-14.25 27.94,-31.61 31.47,-52.35 3.53,-20.74 5.36,-55.03 5.36,-103.01l0 -335.57 122.77 0 0 318.78c0,72.81 -3.24,124.31 -9.88,154.37 -6.63,30.06 -18.76,55.46 -36.54,76.2 -17.64,20.75 -41.35,37.11 -70.98,49.39 -29.78,12.28 -68.44,18.49 -116.28,18.49 -57.71,0 -101.46,-6.64 -131.23,-20.04 -29.78,-13.41 -53.34,-30.76 -70.7,-52.21 -17.36,-21.45 -28.65,-43.75 -34.15,-67.31 -8.04,-34.72 -11.99,-86.08 -11.99,-153.96l0 -323.71zm611.44 606.22l0 -606.22 118.81 0 249.49 406.26 0 -406.26 113.45 0 0 606.22 -122.62 0 -245.68 -398.5 0 398.5 -113.45 0zm1157.54 0l-132.22 0 -52.35 -138.01 -243.14 0 -50.38 138.01 -129.82 0 235.37 -606.22 129.69 0 242.85 606.22zm-224.37 -240.45l-84.24 -224.37 -81.85 224.37 166.09 0zm293.09 240.45l0 -601.14 122.77 0 0 498.69 303.96 0 0 102.45 -426.73 0zm733.78 -606.22l223.24 0c50.37,0 88.75,3.81 115.14,11.58 35.42,10.44 65.9,29.06 91.16,55.88 25.4,26.67 44.59,59.4 57.86,98.21 13.12,38.66 19.75,86.5 19.75,143.23 0,49.95 -6.21,92.85 -18.62,128.97 -15.1,44.17 -36.69,79.87 -64.77,107.11 -21.17,20.74 -49.82,36.83 -85.8,48.4 -26.95,8.61 -62.94,12.84 -108.09,12.84l-229.87 0 0 -606.22zm122.76 102.45l0 401.32 91.02 0c34.01,0 58.56,-1.97 73.66,-5.78 19.9,-4.94 36.27,-13.41 49.25,-25.26 13.12,-11.86 23.71,-31.33 31.89,-58.42 8.33,-27.1 12.42,-64.21 12.42,-111.06 0,-46.85 -4.09,-82.69 -12.42,-107.81 -8.18,-25.11 -19.76,-44.59 -34.57,-58.7 -14.82,-13.97 -33.59,-23.56 -56.45,-28.5 -16.93,-3.81 -50.37,-5.79 -100.04,-5.79l-54.76 0zm488.68 503.77l0 -606.22 448.73 0 0 102.45 -325.97 0 0 134.62 303.11 0 0 102.45 -303.11 0 0 164.25 337.83 0 0 102.45 -460.59 0zm1187.73 -223.52l118.54 36.41c-18.21,66.74 -48.55,116.27 -90.88,148.73 -42.33,32.31 -95.96,48.54 -161.01,48.54 -80.57,0 -146.75,-27.52 -198.68,-82.55 -51.79,-55.03 -77.76,-130.25 -77.76,-225.78 0,-100.89 26.11,-179.35 78.18,-235.23 52.07,-55.88 120.65,-83.82 205.6,-83.82 74.22,0 134.48,22.01 180.76,65.9 27.66,25.96 48.26,63.21 62.09,111.9l-121.07 28.79c-7.2,-31.33 -22.16,-56.17 -44.88,-74.37 -22.86,-18.2 -50.51,-27.24 -82.97,-27.24 -45.01,0 -81.56,16.09 -109.5,48.41 -28.08,32.17 -42.05,84.38 -42.05,156.63 0,76.48 13.83,131.09 41.34,163.55 27.66,32.6 63.5,48.82 107.67,48.82 32.6,0 60.68,-10.3 84.1,-31.04 23.43,-20.75 40.36,-53.2 50.52,-97.65zm198.27 -75.92c0,-61.81 9.31,-113.73 27.8,-155.79 13.68,-30.9 32.59,-58.7 56.44,-83.25 23.85,-24.56 49.95,-42.76 78.32,-54.75 37.82,-15.95 81.42,-23.99 130.81,-23.99 89.46,0 160.87,27.8 214.63,83.25 53.62,55.6 80.43,132.79 80.43,231.71 0,98.07 -26.67,174.84 -79.87,230.15 -53.2,55.46 -124.46,83.12 -213.5,83.12 -90.17,0 -161.99,-27.52 -215.19,-82.69 -53.2,-55.04 -79.87,-130.96 -79.87,-227.76zm126.15 -4.09c0,68.72 15.95,120.79 47.7,156.35 31.75,35.42 72.1,53.2 120.93,53.2 48.96,0 89.04,-17.64 120.51,-52.78 31.33,-35.27 46.99,-88.05 46.99,-158.46 0,-69.57 -15.24,-121.5 -45.86,-155.65 -30.48,-34.29 -70.98,-51.37 -121.64,-51.37 -50.52,0 -91.3,17.36 -122.2,51.93 -30.91,34.72 -46.43,86.93 -46.43,156.78zm557.82 303.53l0 -606.22 118.81 0 249.49 406.26 0 -406.26 113.45 0 0 606.22 -122.62 0 -245.68 -398.5 0 398.5 -113.45 0zm747.75 0l0 -503.77 -179.49 0 0 -102.45 480.91 0 0 102.45 -178.65 0 0 503.77 -122.77 0zm864.17 0l-132.22 0 -52.35 -138.01 -243.14 0 -50.38 138.01 -129.82 0 235.37 -606.22 129.69 0 242.85 606.22zm-224.37 -240.45l-84.24 -224.37 -81.85 224.37 166.09 0zm257.53 44.02l119.38 -11.85c7.2,39.93 21.59,69.14 43.47,87.91 21.87,18.77 51.36,28.08 88.47,28.08 39.23,0 68.87,-8.32 88.76,-24.97 19.9,-16.65 29.92,-36.13 29.92,-58.42 0,-14.4 -4.24,-26.53 -12.56,-36.69 -8.33,-10.02 -23,-18.77 -43.89,-26.11 -14.25,-5.08 -46.7,-13.83 -97.5,-26.53 -65.34,-16.37 -111.2,-36.4 -137.59,-60.25 -37.11,-33.45 -55.6,-74.23 -55.6,-122.35 0,-30.9 8.75,-59.97 26.11,-86.92 17.5,-26.95 42.61,-47.41 75.49,-61.53 32.88,-14.11 72.39,-21.16 118.96,-21.16 75.78,0 132.93,16.79 171.17,50.52 38.38,33.72 58.42,78.59 60.4,134.9l-122.77 4.23c-5.22,-31.33 -16.37,-53.76 -33.45,-67.45 -17.07,-13.69 -42.75,-20.6 -76.9,-20.6 -35.28,0 -62.94,7.34 -82.83,22.01 -12.84,9.46 -19.34,22.01 -19.34,37.82 0,14.39 6.07,26.67 18.21,36.83 15.38,13.12 52.77,26.67 112.18,40.78 59.41,13.97 103.29,28.65 131.66,43.6 28.5,15.1 50.8,35.56 66.89,61.67 16.08,26.11 24.13,58.28 24.13,96.52 0,34.71 -9.6,67.31 -28.93,97.65 -19.33,30.34 -46.57,52.92 -81.85,67.59 -35.28,14.82 -79.3,22.16 -131.94,22.16 -76.62,0 -135.46,-17.64 -176.53,-53.06 -41.06,-35.28 -65.47,-86.78 -73.52,-154.38z"/>
  <path class="fil0" d="M136.1 7855.98l0 -685.62 191.57 0c56.26,0 106.56,12.85 151.08,38.41 44.68,25.55 79.39,62.2 104.31,109.93 25.07,47.73 37.44,102.05 37.44,162.97l0 63c0,61.23 -12.37,115.56 -37.12,162.97 -24.75,47.41 -59.79,84.05 -104.79,109.77 -45,25.71 -96.75,38.57 -155.09,38.57l-187.4 0zm57.86 -636.44l0 587.26 130.02 0c72.16,0 130.02,-23.95 173.73,-71.84 43.56,-47.89 65.42,-112.66 65.42,-194.31l0 -60.27c0,-78.75 -21.54,-141.91 -64.61,-189.32 -42.91,-47.42 -99.65,-71.2 -169.88,-71.52l-134.68 0zm1080.18 330.91c0,63.01 -10.93,118.45 -32.78,166.35 -21.7,47.73 -52.88,84.38 -93.38,110.25 -40.5,25.72 -87.27,38.57 -140.31,38.57 -80.04,0 -144.81,-28.6 -193.99,-85.98 -49.34,-57.38 -73.93,-134.68 -73.93,-232.08l0 -70.71c0,-62.52 11.09,-117.81 33.11,-166.03 22.18,-48.21 53.52,-85.34 94.02,-111.21 40.5,-25.88 87.11,-38.9 139.83,-38.9 52.71,0 99.32,12.7 139.66,38.09 40.34,25.56 71.36,61.56 93.38,108.01 22.02,46.44 33.43,100.28 34.39,161.52l0 82.12zm-57.86 -74.25c0,-82.61 -18.64,-147.38 -56.09,-194.15 -37.28,-46.76 -88.55,-70.23 -153.48,-70.23 -63.65,0 -114.43,23.47 -152.36,70.4 -37.77,47.09 -56.74,112.66 -56.74,196.71l0 71.69c0,81.32 18.97,145.93 56.58,193.5 37.6,47.57 88.87,71.36 153.48,71.36 65.57,0 116.84,-23.47 153.49,-70.4 36.8,-47.09 55.12,-112.5 55.12,-196.39l0 -72.49zm816.94 50.95l-320.79 0 0 279.65 368.68 0 0 49.18 -426.54 0 0 -685.62 424.29 0 0 49.18 -366.43 0 0 258.43 320.79 0 0 49.18zm557.69 160.24c0,-37.93 -13.34,-67.99 -40.02,-90.17 -26.68,-22.18 -75.54,-43.07 -146.41,-63.16 -70.88,-19.93 -122.79,-41.62 -155.42,-65.25 -46.44,-33.27 -69.59,-76.98 -69.59,-130.99 0,-52.39 21.54,-94.98 64.61,-127.93 43.23,-32.78 98.36,-49.18 165.54,-49.18 45.48,0 86.31,8.84 122.31,26.36 35.84,17.68 63.64,42.11 83.57,73.61 19.77,31.34 29.57,66.38 29.57,104.95l-58.34 0c0,-46.77 -16.07,-84.54 -48.05,-112.99 -31.99,-28.44 -75.06,-42.75 -129.06,-42.75 -52.39,0 -94.18,11.73 -125.2,35.04 -31.02,23.46 -46.61,54 -46.61,91.61 0,34.87 13.98,63.32 41.95,85.34 27.96,22.02 72.64,41.3 134.2,58.18 61.39,16.71 108,34.23 139.82,52.23 31.67,18.16 55.45,39.7 71.52,64.93 16.08,25.08 23.95,54.81 23.95,89.2 0,54 -21.53,97.4 -64.61,130.18 -43.23,32.63 -100.13,49.02 -170.68,49.02 -48.38,0 -92.73,-8.68 -133.08,-25.87 -40.34,-17.36 -70.87,-41.47 -91.77,-72.65 -20.89,-31.02 -31.34,-66.7 -31.34,-106.87l57.86 0c0,48.21 18.16,86.46 54.17,114.27 36.16,27.96 84.21,41.94 144.16,41.94 53.36,0 96.11,-11.73 128.41,-35.35 32.47,-23.47 48.54,-54.81 48.54,-93.7zm648.66 -467.85l-234.97 0 0 636.44 -58.02 0 0 -636.44 -234.49 0 0 -49.18 527.48 0 0 49.18zm443.74 443.58l-311.15 0 -70.71 192.86 -60.76 0 259.56 -685.62 54.97 0 259.56 685.62 -60.27 0 -71.2 -192.86zm-293.31 -49.18l274.99 0 -137.41 -373.03 -137.58 373.03zm525.39 242.04l0 -685.62 191.57 0c56.26,0 106.56,12.85 151.08,38.41 44.68,25.55 79.39,62.2 104.31,109.93 25.07,47.73 37.44,102.05 37.44,162.97l0 63c0,61.23 -12.37,115.56 -37.12,162.97 -24.75,47.41 -59.79,84.05 -104.79,109.77 -45,25.71 -96.75,38.57 -155.09,38.57l-187.4 0zm57.86 -636.44l0 587.26 130.02 0c72.16,0 130.02,-23.95 173.73,-71.84 43.56,-47.89 65.42,-112.66 65.42,-194.31l0 -60.27c0,-78.75 -21.54,-141.91 -64.61,-189.32 -42.91,-47.42 -99.65,-71.2 -169.88,-71.52l-134.68 0zm1080.18 330.91c0,63.01 -10.93,118.45 -32.78,166.35 -21.7,47.73 -52.88,84.38 -93.38,110.25 -40.5,25.72 -87.27,38.57 -140.31,38.57 -80.04,0 -144.81,-28.6 -193.99,-85.98 -49.34,-57.38 -73.93,-134.68 -73.93,-232.08l0 -70.71c0,-62.52 11.09,-117.81 33.11,-166.03 22.18,-48.21 53.52,-85.34 94.02,-111.21 40.5,-25.88 87.11,-38.9 139.83,-38.9 52.71,0 99.32,12.7 139.66,38.09 40.34,25.56 71.36,61.56 93.38,108.01 22.02,46.44 33.43,100.28 34.39,161.52l0 82.12zm-57.86 -74.25c0,-82.61 -18.64,-147.38 -56.09,-194.15 -37.28,-46.76 -88.55,-70.23 -153.48,-70.23 -63.65,0 -114.43,23.47 -152.36,70.4 -37.77,47.09 -56.74,112.66 -56.74,196.71l0 71.69c0,81.32 18.97,145.93 56.58,193.5 37.6,47.57 88.87,71.36 153.48,71.36 65.57,0 116.84,-23.47 153.49,-70.4 36.8,-47.09 55.12,-112.5 55.12,-196.39l0 -72.49zm438.45 379.78l0 -685.62 191.57 0c56.26,0 106.56,12.85 151.08,38.41 44.68,25.55 79.39,62.2 104.31,109.93 25.07,47.73 37.44,102.05 37.44,162.97l0 63c0,61.23 -12.37,115.56 -37.12,162.97 -24.75,47.41 -59.79,84.05 -104.79,109.77 -45,25.71 -96.75,38.57 -155.09,38.57l-187.4 0zm57.86 -636.44l0 587.26 130.02 0c72.16,0 130.02,-23.95 173.73,-71.84 43.56,-47.89 65.42,-112.66 65.42,-194.31l0 -60.27c0,-78.75 -21.54,-141.91 -64.61,-189.32 -42.91,-47.42 -99.65,-71.2 -169.88,-71.52l-134.68 0zm952.09 307.61l-320.79 0 0 279.65 368.68 0 0 49.18 -426.54 0 0 -685.62 424.29 0 0 49.18 -366.43 0 0 258.43 320.79 0 0 49.18zm899.38 247.67c-20.09,28.44 -51.43,50.78 -94.34,66.86 -42.91,15.91 -90.81,23.94 -143.84,23.94 -53.68,0 -101.42,-12.85 -143.2,-38.57 -41.63,-25.87 -74.1,-62.2 -96.92,-109.45 -22.98,-47.09 -34.55,-101.09 -34.87,-162l0 -86.79c0,-95.15 23.94,-170.2 72,-225.33 48.05,-55.12 112.5,-82.77 193.5,-82.77 70.72,0 127.45,18 170.52,54 43.08,35.84 68.63,85.51 76.83,148.67l-58.02 0c-8.52,-50.47 -28.93,-88.56 -61.4,-114.59 -32.46,-25.88 -75.05,-38.9 -127.45,-38.9 -63.96,0 -114.75,22.82 -152.03,68.31 -37.29,45.64 -56.1,109.77 -56.1,192.86l0 81c0,52.07 9,98.2 26.68,138.38 17.68,40.02 43.08,71.04 76.35,93.06 33.1,22.01 71.03,32.94 114.11,32.94 49.98,0 92.73,-7.87 128.57,-23.46 23.14,-10.29 40.5,-22.34 51.75,-36.16l0 -176.63 -184.02 0 0 -49.18 241.88 0 0 243.81zm671 -224.37c0,63.01 -10.93,118.45 -32.78,166.35 -21.7,47.73 -52.88,84.38 -93.38,110.25 -40.5,25.72 -87.27,38.57 -140.31,38.57 -80.04,0 -144.81,-28.6 -193.99,-85.98 -49.34,-57.38 -73.93,-134.68 -73.93,-232.08l0 -70.71c0,-62.52 11.09,-117.81 33.11,-166.03 22.18,-48.21 53.52,-85.34 94.02,-111.21 40.5,-25.88 87.11,-38.9 139.83,-38.9 52.71,0 99.32,12.7 139.66,38.09 40.34,25.56 71.36,61.56 93.38,108.01 22.02,46.44 33.43,100.28 34.39,161.52l0 82.12zm-57.86 -74.25c0,-82.61 -18.64,-147.38 -56.09,-194.15 -37.28,-46.76 -88.55,-70.23 -153.48,-70.23 -63.65,0 -114.43,23.47 -152.36,70.4 -37.77,47.09 -56.74,112.66 -56.74,196.71l0 71.69c0,81.32 18.97,145.93 56.58,193.5 37.6,47.57 88.87,71.36 153.48,71.36 65.57,0 116.84,-23.47 153.49,-70.4 36.8,-47.09 55.12,-112.5 55.12,-196.39l0 -72.49zm274.51 379.78l-58.02 0 0 -685.62 58.02 0 0 685.62zm564.6 -192.86l-311.15 0 -70.71 192.86 -60.76 0 259.56 -685.62 54.97 0 259.56 685.62 -60.27 0 -71.2 -192.86zm-293.31 -49.18l274.99 0 -137.41 -373.03 -137.58 373.03zm194.95 -629.7l68.31 0 -108.81 132.11 -49.5 -0.48 90 -131.63zm718.09 703.15c0,-37.93 -13.34,-67.99 -40.02,-90.17 -26.68,-22.18 -75.54,-43.07 -146.41,-63.16 -70.88,-19.93 -122.79,-41.62 -155.42,-65.25 -46.44,-33.27 -69.59,-76.98 -69.59,-130.99 0,-52.39 21.54,-94.98 64.61,-127.93 43.23,-32.78 98.36,-49.18 165.54,-49.18 45.48,0 86.31,8.84 122.31,26.36 35.84,17.68 63.64,42.11 83.57,73.61 19.77,31.34 29.57,66.38 29.57,104.95l-58.34 0c0,-46.77 -16.07,-84.54 -48.05,-112.99 -31.99,-28.44 -75.06,-42.75 -129.06,-42.75 -52.39,0 -94.18,11.73 -125.2,35.04 -31.02,23.46 -46.61,54 -46.61,91.61 0,34.87 13.98,63.32 41.95,85.34 27.96,22.02 72.64,41.3 134.2,58.18 61.39,16.71 108,34.23 139.82,52.23 31.67,18.16 55.45,39.7 71.52,64.93 16.08,25.08 23.95,54.81 23.95,89.2 0,54 -21.53,97.4 -64.61,130.18 -43.23,32.63 -100.13,49.02 -170.68,49.02 -48.38,0 -92.73,-8.68 -133.08,-25.87 -40.34,-17.36 -70.87,-41.47 -91.77,-72.65 -20.89,-31.02 -31.34,-66.7 -31.34,-106.87l57.86 0c0,48.21 18.16,86.46 54.17,114.27 36.16,27.96 84.21,41.94 144.16,41.94 53.36,0 96.11,-11.73 128.41,-35.35 32.47,-23.47 48.54,-54.81 48.54,-93.7z"/>
  <path class="fil1" d="M4397.61 5112.12c-337.01,0 -516.63,-14.21 -822.56,-124.18 -229.23,-82.4 -531.98,-262.48 -701.25,-433.29 -96.13,-96.99 -185.67,-193.68 -267.97,-303.2 -226.93,-301.94 -385.19,-666.1 -478.95,-1031.15 -12.07,-47 -25.46,-100.75 -37.55,-150.23 -65.65,-268.88 -126.75,-739.77 -124.99,-1017.37 0.41,-64.29 -7.97,-108.61 -7.93,-179.85 0.04,-62.6 -0.14,-125.21 0.02,-187.81 0.18,-72.83 -6.48,-100.26 1.16,-170.9 6.32,-58.34 6.65,-119.5 6.65,-189 -5.66,8.14 -0.52,-2.33 -8.34,15.14 -77.06,172.1 -181.92,699.59 -204.35,883.23 -11.64,95.27 -30,207.21 -30.14,306.32l-4.35 215.94c5.99,38.2 4.78,71.67 4.6,112.96 -0.33,76.75 10.83,135.57 15.4,203.69 12.8,191.28 61.85,392.11 112.53,568.18 78.93,274.21 203.37,525.75 355.7,763.18 104.59,163.03 266.25,381.04 407.26,516.02l106.12 97.31c300.64,233.52 475.92,341.87 877.9,475.71 658.29,219.18 1333.58,145.26 1958.91,-136.1 126.28,-56.81 252.56,-120.22 371.29,-192.06l173.45 -108.23c166.32,-111.79 327.41,-227.79 484.9,-352.3 92.34,-73 174.76,-154.23 263.83,-229.12 112.88,-94.92 224.33,-201.09 324.44,-309.31l252.29 -303.24c20.47,-26.28 42.01,-52.02 62.55,-78.3l411.6 -566.43c114.33,-171.08 213.81,-347.66 319.39,-525.64l72.42 -131.02c144.34,-259.89 274.54,-530.97 393.92,-803.19 28.46,-64.89 53,-131.18 83.19,-198.5 30.91,-68.94 141.62,-328.96 159.15,-404.2 -22.95,16.82 -32.8,50.96 -48.45,76.73 -17.03,28.05 -31.4,55.76 -47.85,85.17 -33.67,60.19 -63.54,109.19 -96.89,169.15 -16.81,30.21 -32.77,54.88 -49.81,83.2 -16.55,27.48 -30.98,54.02 -48.96,84.05l-415.38 648.73c-19.5,29.44 -33.05,51.54 -53.82,79.19 -20.87,27.8 -34,50.56 -54.77,78.25l-342.16 455.92c-38.75,50.74 -78.15,96.93 -118.29,147.74l-247.06 285c-71.8,85.76 -332.83,360.28 -386.86,403.39 -47.57,37.95 -86.54,92.06 -134.16,131.87 -59.63,49.84 -112.13,106.15 -174.35,154.27l-71.3 61.71c-16.71,14.04 -19.72,17.67 -38.21,32.21 -25.71,20.21 -47.86,39.91 -72,61.01 -166.78,145.79 -352.54,275.45 -542.06,389.04 -55.91,33.5 -110.44,63.94 -169.2,96.83 -30.07,16.83 -59.57,29.97 -88.63,44.38 -31.43,15.59 -54.49,31.86 -85.84,47.18l-182.75 83.27c-281.39,135.27 -738.25,268.65 -1061.49,268.65z"/>
  <path class="fil1" d="M3560.47 3946.3c2.13,-127.99 29.59,-289.31 30.26,-329.83 0.86,-52.6 -144.36,-180.23 -213.02,-382.55l307.88 48.54c21.72,-34.27 41.57,-97.96 58.8,-138.19 20.51,-47.86 38.05,-92.22 59.35,-135.95l124.54 -260.45 29.49 143.95c13.04,82.57 58.93,405.37 74.97,439.84l660.36 72.93 -423.9 233.11c-42.25,22.86 -101.14,57.91 -145.86,74.46 31.54,194.38 118.86,368.99 158.03,517.44 -89.59,-40.95 -244.78,-197.07 -333.96,-271.04 -121.45,-100.74 -87.81,-121.89 -166.64,-81.27 -59.33,30.57 -145.4,74.8 -204.72,95.76 12.41,13.5 22.99,29.21 36.64,46.11 16.32,20.21 27.77,32.74 42.7,51.23 138.5,171.63 328.22,291.85 537.73,362.07 44.48,14.9 260.13,67.85 306.33,45.89l78.14 -80.52c-25.4,-9.28 -37.18,-19.09 -65.13,-34.19 -10.16,-5.49 -19.92,-9.99 -30.01,-16.22l-34.74 -30.22c195.05,9.22 171.76,39.94 234.47,-54.64 30.25,-45.61 16.62,-41.29 48.32,-59.03l25.08 126.07 171.77 -2.23 -152.99 75.36 14.8 59.97c65.55,-15.59 122.99,-32.89 180.64,-53.75 168.56,-61.01 300.63,-165.78 423.46,-288.57 128.56,-128.52 214.47,-264.39 272.95,-439.06 110.48,-330.05 56.91,-731.66 -102.76,-971.29 -16.11,-24.16 -27.8,-47.43 -45.7,-71.66 -18,-24.33 -32.05,-41.07 -51.48,-65.89 -82.73,-105.7 -202.14,-207.87 -315.91,-278.73l-79.64 -45.55c-100.88,-51.74 -251.44,-93.8 -369.32,-107.97 -298.33,-35.86 -532.86,21.54 -771.81,164.4 -103.66,61.97 -174.59,137.29 -257.76,219.52 -277.8,274.66 -355.89,728.72 -261.79,1095.22 21.91,85.31 87.65,255.23 150.43,326.93z"/>
  <path class="fil1" d="M266.35 3476.83c0,-57.81 -12.23,-117.23 -20.16,-175.43 -22.31,-163.73 -34.42,-399.06 -34.61,-560.06 -0.09,-74.09 8.42,-116.61 7.75,-187.86 -1.26,-134.36 44.4,-404.03 73.64,-521.02 61.55,-246.29 165.57,-489.9 307.55,-678.3 49.24,-65.34 123.83,-159.2 184.1,-214.95 21.19,-19.59 32.89,-25.06 54.83,-46.88 90.07,-89.57 297.57,-217.97 412.73,-275.81 178.63,-89.68 550.74,-211.36 759.97,-233.73 106.9,-11.43 276.19,-0.42 390.31,-1.01 181.91,-0.94 523.8,52.47 701.04,97.03 231.19,58.12 381.58,101.57 601.14,189.12 28.33,11.3 39.26,17.4 65.82,28.07 22.89,9.2 49.01,18.71 71.71,30.02 187.61,93.46 331.84,150.85 523.7,266.56 223.63,134.86 383.62,240.15 595.09,398.59l539.88 453.82 400.94 389.32c18.14,20.59 22.01,30.04 42.97,50.91 18.98,18.88 32.12,31.74 51.1,50.62 20.96,20.87 24.84,30.32 42.97,50.92l144.63 160.51c20.11,21.49 25.39,26.9 43.89,50.01 16.86,21.06 31.27,31.62 48.11,53.61l270.47 324.18c60.26,76.73 117.85,147.95 175.61,223.43l172.04 227c-17.13,-73.53 -407.02,-735.15 -453.81,-805.91l-167.45 -255.06c-100.35,-150.53 -243.25,-346.06 -354.32,-482.88 -33.81,-41.65 -59.4,-76.34 -93.93,-117.33 -209.16,-248.35 -266.23,-301.82 -505.07,-543.39 -93.74,-94.82 -351.53,-303.87 -459.74,-385.29 -427.52,-321.71 -904.23,-544.8 -1428.72,-676.03 -106.16,-26.56 -235.42,-54.28 -348.03,-66.66 -262.33,-28.84 -543,-46.37 -813.16,-31.95 -190.19,10.14 -551.55,69.17 -718.88,118.31 -253.26,74.36 -501.94,184.09 -709.63,346.66 -276.02,216.05 -496.4,538.82 -590.12,880.85 -143.79,524.72 -133.13,967.78 -52.5,1515.65l68.14 354.36z"/>
  <path class="fil2" d="M4405.43 5863.26c738,0 1441.93,-213.74 2066.01,-570.78 245.72,-140.58 388.62,-242.21 609.92,-415.09l686.68 -635.63 140.7 -156.63c197.63,-194.41 664.1,-850.32 762.52,-997.95 79.26,-118.91 154.97,-232.56 229.78,-357.05l345.15 -601.58c11.93,-21.35 16.85,-26.18 28.7,-49.55l150.46 -287.7c19.72,-32.92 89.92,-168.87 97.2,-200.13 -15.6,-21.29 -82.27,-55.65 -109.54,-70.42l-359.92 -203.43 -349.48 792.87c-64.86,129.02 -124.9,255.26 -190.3,380.88 -16.45,31.61 -31.82,55.16 -49.64,91.19 -111.11,224.74 -360.54,621.61 -487.2,811.64 -40.62,60.95 -78.59,111.36 -118.95,170.55 -81.44,119.44 -302.23,407.27 -406.54,524.56l-102.43 116.65c-21.91,27.46 -45.6,43.19 -68.28,72.56l-209.04 221.3c-96.42,80.58 -190.96,182.64 -306.19,272.81l-155.39 126.29c-344.08,255.21 -481.52,348.66 -887.12,552.57 -130.91,65.81 -266.18,116.41 -407.12,171.86 -182.54,71.81 -476.74,150.11 -671.96,188.72 -40.11,7.94 -214.56,35.19 -238.02,51.49z"/>
  <path class="fil3" d="M2918.81 135.84l195.68 31.22c65.41,10.94 136.7,25.1 197.49,37.25l375.27 94.19c445.55,123.54 880.83,343.36 1264.33,597.86 47.51,31.53 86.19,62 133.02,93.88 83.98,57.18 315.74,246.77 386.75,317.44l510.11 530.53 354.39 467.17c100.7,134.27 263.4,418.63 354.64,576.45 13.95,24.12 25.15,44.74 38.68,70.87l200.93 385.89c15.29,30.32 22.05,49.84 36.46,80.9 13.78,29.7 29.04,48.56 36.55,80.82 35.54,-9.49 40.94,-35.29 64.46,-60.74l444.13 -479.14 -179.97 -281.68c-108.42,-162.61 -415.91,-578.1 -557.58,-717.79l-222.94 -238.68c-25.2,-22.06 -37.77,-29.79 -62.57,-54.8 -34.77,-35.1 -76.76,-82.78 -114.77,-112.13 -46.75,-36.09 -79.56,-72.93 -124.21,-110.52l-125.12 -101.79c-148.15,-109.12 -223.1,-175.97 -406.18,-298.01 -722.61,-481.71 -1502.05,-741.96 -2371.56,-867.71 -107.59,-15.57 -322.27,-41.48 -427.99,-41.48z"/>
  <path class="fil3" d="M2097.25 1802.43c0,328.46 -5.06,479.58 42.43,818.25 67.38,480.6 201.54,880.67 440.15,1281.2 50.9,85.43 170.49,250.35 239.6,331.58 244.35,287.21 542.99,524.93 876.56,703.95 24.63,13.22 78.07,44.61 99.14,49.52l-244.45 -209.36c-91.57,-80.64 -150.59,-151.3 -227,-226.81 -85.94,-84.94 -228.69,-277.58 -298.47,-382.25 -17.72,-26.58 -30,-43.45 -46.31,-71.05 -144.05,-243.99 -237.14,-425.57 -316.61,-708.39 -121.85,-433.7 -138.26,-885.06 -75.49,-1339.65 12.48,-90.32 25.03,-163.43 40.55,-241.12l48.9 -232.77c-24.12,-5.63 -87.73,-44.35 -112.88,-59.27 -39.17,-23.23 -71.84,-38.2 -110.72,-61.41l-280.06 -159.18c-46.81,-26.66 -39.17,-23.84 -50.55,85.56 -14.89,143.1 -24.79,275.94 -24.79,421.2z"/>
  <path class="fil2" d="M1408.7 879.15c-49.35,11.51 -162.55,84.75 -206.57,114.23 -36.26,24.28 -62.36,43.66 -97.08,67.24 -69.4,47.13 -243,210 -291.01,272.33 -14.07,18.28 -25.3,28.56 -39.24,46.83 -267.46,350.46 -344.56,643.14 -403.5,1067.46 -48.02,345.64 10.62,868.82 74.36,1186.73 36.26,180.85 78.51,354.26 125.84,523.58 23.74,84.9 46.95,168.85 75.29,253.34 14.78,44.05 27.72,83.13 41.08,123.23 13.54,40.62 30.62,83.42 40.12,124.19 17.88,-11.97 41.85,-33.25 60.79,-48.74l302.51 -245.2c29.79,-23.39 104.55,-79.32 121.81,-105.1l-211.27 -391.21c-67.12,-135 -127.88,-269.31 -185.44,-417.03 -58.43,-149.95 -105.82,-286.4 -147.85,-454.62 -30.4,-121.58 -80.05,-387.17 -81.7,-520.78 -8.12,-657.69 250.3,-1165.89 734.66,-1527.19 21.46,-16 74.48,-51.9 87.2,-69.29z"/>
  <path class="fil4" d="M3560.47 3946.3c8.23,11.94 8.59,13.85 15.58,26.75 59.32,-20.96 145.39,-65.19 204.72,-95.76 78.83,-40.62 45.19,-19.47 166.64,81.27 89.18,73.97 244.37,230.09 333.96,271.04 -39.17,-148.45 -126.49,-323.06 -158.03,-517.44 44.72,-16.55 103.61,-51.6 145.86,-74.46l423.9 -233.11 -660.36 -72.93c-16.04,-34.47 -61.93,-357.27 -74.97,-439.84l-29.49 -143.95 -124.54 260.45c-21.3,43.73 -38.84,88.09 -59.35,135.95 -17.23,40.23 -37.08,103.92 -58.8,138.19l-307.88 -48.54c68.66,202.32 213.88,329.95 213.02,382.55 -0.67,40.52 -28.13,201.84 -30.26,329.83z"/>
  <path class="fil5" d="M4499.45 4478.35l11.03 4.54c70.44,16.35 235.9,-19.25 278.68,-20.19l-14.8 -59.97 152.99 -75.36 -171.77 2.23 -25.08 -126.07c-31.7,17.74 -18.07,13.42 -48.32,59.03 -62.71,94.58 -39.42,63.86 -234.47,54.64l34.74 30.22c10.09,6.23 19.85,10.73 30.01,16.22 27.95,15.1 39.73,24.91 65.13,34.19l-78.14 80.52z"/>
  <path class="fil6" d="M266.35 3476.83l0 31.3 7.83 0c0,-4.36 0.16,-12.77 -0.52,-15.11 -3.99,-13.85 -2.56,-8.7 -7.31,-16.19z"/>
  <polygon class="fil2" points="1424.36,871.33 1432.18,871.33 1425.66,862.2 "/>
  <path class="fil3" d="M2879.69 135.84c0.77,0.78 2.33,-3.43 2.33,-2.33l0 0c-0.15,0.15 -3.12,1.56 -2.33,2.33z"/>
  <polygon class="fil3" points="2918.81,135.84 2903.55,126.85 "/>
  <polygon class="fil2" points="1424.36,871.33 1408.7,879.15 "/>
 </g>
</svg>
