<?xml version="1.0" encoding="UTF-8" standalone="no"?>
<svg
   id="Layer_1"
   data-name="Layer 1"
   version="1.1"
   viewBox="0 0 235.89999 49.558311"
   sodipodi:docname="Check-Point-2024-logo-color.svg"
   width="235.89999"
   height="49.558311"
   inkscape:version="1.2.2 (b0a8486541, 2022-12-01)"
   xmlns:inkscape="http://www.inkscape.org/namespaces/inkscape"
   xmlns:sodipodi="http://sodipodi.sourceforge.net/DTD/sodipodi-0.dtd"
   xmlns="http://www.w3.org/2000/svg"
   xmlns:svg="http://www.w3.org/2000/svg">
  <sodipodi:namedview
     id="namedview607"
     pagecolor="#ffffff"
     bordercolor="#000000"
     borderopacity="0.25"
     inkscape:showpageshadow="2"
     inkscape:pageopacity="0.0"
     inkscape:pagecheckerboard="0"
     inkscape:deskcolor="#d1d1d1"
     showgrid="false"
     inkscape:zoom="2.0946707"
     inkscape:cx="136.05957"
     inkscape:cy="36.759955"
     inkscape:window-width="1866"
     inkscape:window-height="1011"
     inkscape:window-x="0"
     inkscape:window-y="0"
     inkscape:window-maximized="1"
     inkscape:current-layer="Layer_1" />
  <defs
     id="defs566">
    <style
       id="style564">
      .cls-1 {
        fill: #000;
      }

      .cls-1, .cls-2, .cls-3 {
        stroke-width: 0px;
      }

      .cls-2 {
        fill: #ee0c5d;
      }

      .cls-3 {
        fill: #231f20;
      }
    </style>
  </defs>
  <g
     id="g598"
     transform="translate(-41,-32.44169)">
    <g
       id="g588">
      <path
         class="cls-3"
         d="m 94.9,66.1 v 0 c 0,-4.9 3.6,-8.8 8.8,-8.8 5.2,0 5.1,1.1 6.7,2.6 l -2.4,2.7 c -1.3,-1.2 -2.6,-1.9 -4.3,-1.9 -2.9,0 -4.9,2.4 -4.9,5.3 v 0 c 0,2.9 2,5.4 4.9,5.4 2.9,0 3.1,-0.8 4.5,-2 l 2.4,2.4 c -1.7,1.9 -3.7,3 -6.9,3 -5,0 -8.7,-3.9 -8.7,-8.7 z"
         id="path568" />
      <path
         class="cls-3"
         d="m 113.5,57.6 h 3.7 c 0,0 0,6.7 0,6.7 h 6.9 c 0,0 0,-6.7 0,-6.7 h 3.7 c 0,0 0,16.9 0,16.9 h -3.7 c 0,0 0,-6.8 0,-6.8 h -6.9 c 0,0 0,6.8 0,6.8 h -3.7 c 0,0 0,-16.9 0,-16.9 z"
         id="path570" />
      <path
         class="cls-3"
         d="m 132.3,57.7 h 12.8 c 0,0 0,3.3 0,3.3 H 136 c 0,0 0,3.4 0,3.4 h 8 c 0,0 0,3.3 0,3.3 h -8 c 0,0 0,3.5 0,3.5 h 9.2 c 0,0 0,3.3 0,3.3 h -12.9 c 0,0 0,-17 0,-17 z"
         id="path572" />
      <path
         class="cls-3"
         d="m 147.7,66.2 v 0 c 0,-4.9 3.7,-8.8 8.8,-8.8 5.1,0 5.1,1.1 6.7,2.6 l -2.4,2.7 c -1.3,-1.2 -2.6,-1.9 -4.3,-1.9 -2.9,0 -4.9,2.4 -4.9,5.3 v 0 c 0,2.9 2,5.4 4.9,5.4 1.9,0 3.1,-0.8 4.5,-2 l 2.4,2.4 c -1.7,1.9 -3.7,3 -6.9,3 -5,0 -8.7,-3.9 -8.7,-8.7 z"
         id="path574" />
      <path
         class="cls-3"
         d="m 166.1,57.8 h 3.7 c 0,0 0,7.4 0,7.4 l 6.9,-7.4 h 4.5 c 0,0 -6.9,7.2 -6.9,7.2 l 7.2,9.8 H 177 c 0,0 -5.2,-7.2 -5.2,-7.2 l -2,2 v 5.2 c 0,0 -3.7,0 -3.7,0 V 57.9 Z"
         id="path576" />
      <path
         class="cls-3"
         d="m 191.6,57.8 h 6.9 c 4,0 6.5,2.4 6.5,5.9 v 0 c 0,4 -3.1,6 -6.9,6 h -2.8 c 0,0 0,5.1 0,5.1 h -3.7 c 0,0 0,-16.9 0,-16.9 z m 6.6,8.6 c 1.9,0 2.9,-1.1 3,-2.6 v 0 c 0,-1.7 -1.2,-2.6 -3,-2.6 h -2.9 c 0,0 0,5.2 0,5.2 h 3 z"
         id="path578" />
      <path
         class="cls-3"
         d="m 207.4,66.4 v 0 c 0,-4.9 3.8,-8.8 9,-8.8 5.2,0 9,3.9 8.9,8.7 v 0 c 0,4.9 -3.8,8.8 -9,8.8 -5.2,0 -9,-3.9 -8.9,-8.7 z m 14.1,0 v 0 c 0,-2.9 -2.1,-5.4 -5.1,-5.4 -3,0 -5.1,2.4 -5.1,5.3 v 0 c 0,2.9 2.1,5.4 5.1,5.4 3,0 5.1,-2.4 5.1,-5.3 z"
         id="path580" />
      <path
         class="cls-3"
         d="m 229,57.9 h 3.7 c 0,0 0,16.9 0,16.9 H 229 c 0,0 0,-16.9 0,-16.9 z"
         id="path582" />
      <path
         class="cls-3"
         d="m 237.4,57.9 h 3.4 c 0,0 7.9,10.4 7.9,10.4 V 57.9 c 0,0 3.7,0 3.7,0 v 16.9 c 0,0 -3.2,0 -3.2,0 L 241,64 v 10.8 c 0,0 -3.7,0 -3.7,0 V 57.9 Z"
         id="path584" />
      <path
         class="cls-3"
         d="m 260.9,61.4 h -5.1 c 0,0 0,-3.4 0,-3.4 h 14 c 0,0 0,3.5 0,3.5 h -5.1 c 0,0 0,13.5 0,13.5 H 261 c 0,0 0,-13.5 0,-13.5 z"
         id="path586" />
    </g>
    <polygon
       class="cls-1"
       points=""
       id="polygon590" />
    <polygon
       class="cls-1"
       points=""
       id="polygon592" />
    <path
       class="cls-3"
       d="m 91.9,44.9 c -2.7,3.3 -7.5,3.8 -10.8,1.2 -3.3,-2.7 -3.8,-7.5 -1.2,-10.8 2.7,-3.3 7.5,-3.8 10.8,-1.2 3.3,2.7 3.8,7.5 1.2,10.8 z"
       id="path594" />
    <path
       class="cls-2"
       d="m 81.5,56.9 c -2.1,1 -4.7,1 -6.9,-0.3 l -6,8 c 0.8,0.9 1.2,2 1.2,3.1 0,1 -0.2,2 -0.8,2.9 -1.5,2.3 -4.7,3 -7,1.5 -0.2,-0.2 -0.5,-0.3 -0.7,-0.5 0,0 -0.1,-0.1 -0.2,-0.2 -0.1,-0.1 -0.3,-0.3 -0.4,-0.5 0,0 -0.1,-0.1 -0.2,-0.2 -0.1,-0.2 -0.3,-0.4 -0.4,-0.7 0,0 0,-0.1 0,-0.2 0,-0.2 -0.2,-0.4 -0.2,-0.6 0,0 0,-0.1 0,-0.2 0,-0.2 0,-0.5 -0.1,-0.7 0,0 0,-0.1 0,-0.2 0,-0.2 0,-0.5 0,-0.7 0,0 0,0 0,-0.1 0,-0.3 0,-0.5 0.2,-0.8 0,0 0,-0.1 0,-0.2 0,-0.3 0.2,-0.5 0.3,-0.8 l -4.9,-3.7 -1.5,2 -5.6,-4.2 4.2,-5.6 5.6,4.2 -1.5,2 4.9,3.7 c 1.5,-1.3 3.7,-1.6 5.6,-0.6 l 6,-8 c -2.4,-2.4 -3,-6.1 -1.2,-9.2 0.3,-0.6 0.8,-1.1 1.2,-1.6 C 69.8,42.3 65.9,41 61.6,40.9 50.3,40.9 41.1,50 41,61.4 41,72.7 50.1,81.9 61.5,82 72.8,82 82,72.9 82.1,61.5 c 0,-1.7 -0.2,-3.3 -0.6,-4.8 z"
       id="path596" />
  </g>
  <g
     id="g604"
     transform="translate(-41,-32.44169)">
    <path
       class="cls-3"
       d="m 273.3,60.4 h -0.4 c 0,0 0,-2 0,-2 h -0.7 c 0,0 0,-0.4 0,-0.4 h 1.9 c 0,0 0,0.4 0,0.4 h -0.7 c 0,0 0,2 0,2 z"
       id="path600" />
    <path
       class="cls-3"
       d="m 275.8,59.8 v 0 c 0,0 -0.7,-1.1 -0.7,-1.1 v 1.7 c 0,0 -0.4,0 -0.4,0 v -2.3 c 0,0 0.4,0 0.4,0 l 0.7,1.1 0.7,-1.1 h 0.4 c 0,0 0,2.3 0,2.3 h -0.4 c 0,0 0,-1.7 0,-1.7 z"
       id="path602" />
  </g>
</svg>
