<?xml version="1.0" encoding="UTF-8"?>
<svg xmlns="http://www.w3.org/2000/svg" xmlns:xlink="http://www.w3.org/1999/xlink" width="779.768pt" height="700.4pt" viewBox="0 0 779.768 700.4" version="1.1">
<defs>
<clipPath id="clip1">
  <path d="M 360 265 L 523 265 L 523 387 L 360 387 Z M 360 265 "/>
</clipPath>
<clipPath id="clip2">
  <path d="M 360.996094 327.113281 C 360.996094 327.113281 369.164063 367.175781 412.742188 386.539063 C 452.851563 386.539063 529.296875 354.355469 521.84375 265.789063 C 521.84375 265.789063 493.550781 376.925781 360.996094 327.113281 "/>
</clipPath>
<linearGradient id="linear0" gradientUnits="userSpaceOnUse" x1="-0.00000251624" y1="0" x2="1.043047" y2="0" gradientTransform="matrix(161.351898,0,0,161.351898,360.997406,326.165564)">
<stop offset="0" style="stop-color:rgb(41.592407%,42.573547%,44.187927%);stop-opacity:1;"/>
<stop offset="0.015625" style="stop-color:rgb(41.749573%,42.721558%,44.329834%);stop-opacity:1;"/>
<stop offset="0.03125" style="stop-color:rgb(42.062378%,43.016052%,44.615173%);stop-opacity:1;"/>
<stop offset="0.046875" style="stop-color:rgb(42.378235%,43.312073%,44.902039%);stop-opacity:1;"/>
<stop offset="0.0625" style="stop-color:rgb(42.694092%,43.609619%,45.19043%);stop-opacity:1;"/>
<stop offset="0.078125" style="stop-color:rgb(43.011475%,43.908691%,45.478821%);stop-opacity:1;"/>
<stop offset="0.09375" style="stop-color:rgb(43.330383%,44.210815%,45.77179%);stop-opacity:1;"/>
<stop offset="0.109375" style="stop-color:rgb(43.650818%,44.514465%,46.064758%);stop-opacity:1;"/>
<stop offset="0.125" style="stop-color:rgb(43.972778%,44.819641%,46.359253%);stop-opacity:1;"/>
<stop offset="0.140625" style="stop-color:rgb(44.294739%,45.126343%,46.655273%);stop-opacity:1;"/>
<stop offset="0.15625" style="stop-color:rgb(44.621277%,45.436096%,46.954346%);stop-opacity:1;"/>
<stop offset="0.171875" style="stop-color:rgb(44.946289%,45.74585%,47.253418%);stop-opacity:1;"/>
<stop offset="0.1875" style="stop-color:rgb(45.274353%,46.057129%,47.555542%);stop-opacity:1;"/>
<stop offset="0.203125" style="stop-color:rgb(45.602417%,46.37146%,47.857666%);stop-opacity:1;"/>
<stop offset="0.21875" style="stop-color:rgb(45.932007%,46.687317%,48.164368%);stop-opacity:1;"/>
<stop offset="0.234375" style="stop-color:rgb(46.266174%,47.006226%,48.471069%);stop-opacity:1;"/>
<stop offset="0.25" style="stop-color:rgb(46.598816%,47.325134%,48.779297%);stop-opacity:1;"/>
<stop offset="0.265625" style="stop-color:rgb(46.932983%,47.645569%,49.08905%);stop-opacity:1;"/>
<stop offset="0.28125" style="stop-color:rgb(47.268677%,47.969055%,49.401855%);stop-opacity:1;"/>
<stop offset="0.296875" style="stop-color:rgb(47.607422%,48.292542%,49.716187%);stop-opacity:1;"/>
<stop offset="0.3125" style="stop-color:rgb(47.946167%,48.61908%,50.032043%);stop-opacity:1;"/>
<stop offset="0.328125" style="stop-color:rgb(48.284912%,48.948669%,50.349426%);stop-opacity:1;"/>
<stop offset="0.34375" style="stop-color:rgb(48.628235%,49.278259%,50.668335%);stop-opacity:1;"/>
<stop offset="0.359375" style="stop-color:rgb(48.970032%,49.610901%,50.98877%);stop-opacity:1;"/>
<stop offset="0.375" style="stop-color:rgb(49.316406%,49.945068%,51.313782%);stop-opacity:1;"/>
<stop offset="0.390625" style="stop-color:rgb(49.661255%,50.280762%,51.637268%);stop-opacity:1;"/>
<stop offset="0.40625" style="stop-color:rgb(50.010681%,50.617981%,51.963806%);stop-opacity:1;"/>
<stop offset="0.421875" style="stop-color:rgb(50.358582%,50.956726%,52.29187%);stop-opacity:1;"/>
<stop offset="0.4375" style="stop-color:rgb(50.709534%,51.300049%,52.622986%);stop-opacity:1;"/>
<stop offset="0.453125" style="stop-color:rgb(51.062012%,51.643372%,52.955627%);stop-opacity:1;"/>
<stop offset="0.46875" style="stop-color:rgb(51.41449%,51.98822%,53.289795%);stop-opacity:1;"/>
<stop offset="0.484375" style="stop-color:rgb(51.77002%,52.334595%,53.625488%);stop-opacity:1;"/>
<stop offset="0.5" style="stop-color:rgb(52.125549%,52.684021%,53.964233%);stop-opacity:1;"/>
<stop offset="0.515625" style="stop-color:rgb(52.485657%,53.034973%,54.304504%);stop-opacity:1;"/>
<stop offset="0.53125" style="stop-color:rgb(52.844238%,53.387451%,54.644775%);stop-opacity:1;"/>
<stop offset="0.546875" style="stop-color:rgb(53.204346%,53.742981%,54.989624%);stop-opacity:1;"/>
<stop offset="0.5625" style="stop-color:rgb(53.567505%,54.100037%,55.334473%);stop-opacity:1;"/>
<stop offset="0.578125" style="stop-color:rgb(53.930664%,54.458618%,55.683899%);stop-opacity:1;"/>
<stop offset="0.59375" style="stop-color:rgb(54.296875%,54.820251%,56.033325%);stop-opacity:1;"/>
<stop offset="0.609375" style="stop-color:rgb(54.663086%,55.183411%,56.385803%);stop-opacity:1;"/>
<stop offset="0.625" style="stop-color:rgb(55.032349%,55.54657%,56.738281%);stop-opacity:1;"/>
<stop offset="0.640625" style="stop-color:rgb(55.401611%,55.912781%,57.095337%);stop-opacity:1;"/>
<stop offset="0.65625" style="stop-color:rgb(55.7724%,56.282043%,57.453918%);stop-opacity:1;"/>
<stop offset="0.671875" style="stop-color:rgb(56.14624%,56.652832%,57.814026%);stop-opacity:1;"/>
<stop offset="0.6875" style="stop-color:rgb(56.520081%,57.025146%,58.175659%);stop-opacity:1;"/>
<stop offset="0.703125" style="stop-color:rgb(56.896973%,57.400513%,58.540344%);stop-opacity:1;"/>
<stop offset="0.71875" style="stop-color:rgb(57.273865%,57.778931%,58.906555%);stop-opacity:1;"/>
<stop offset="0.734375" style="stop-color:rgb(57.653809%,58.157349%,59.275818%);stop-opacity:1;"/>
<stop offset="0.75" style="stop-color:rgb(58.033752%,58.537292%,59.645081%);stop-opacity:1;"/>
<stop offset="0.765625" style="stop-color:rgb(58.415222%,58.920288%,60.017395%);stop-opacity:1;"/>
<stop offset="0.78125" style="stop-color:rgb(58.798218%,59.30481%,60.392761%);stop-opacity:1;"/>
<stop offset="0.796875" style="stop-color:rgb(59.184265%,59.692383%,60.769653%);stop-opacity:1;"/>
<stop offset="0.8125" style="stop-color:rgb(59.571838%,60.081482%,61.148071%);stop-opacity:1;"/>
<stop offset="0.828125" style="stop-color:rgb(59.959412%,60.472107%,61.531067%);stop-opacity:1;"/>
<stop offset="0.84375" style="stop-color:rgb(60.348511%,60.865784%,61.912537%);stop-opacity:1;"/>
<stop offset="0.859375" style="stop-color:rgb(60.740662%,61.260986%,62.30011%);stop-opacity:1;"/>
<stop offset="0.875" style="stop-color:rgb(61.132813%,61.657715%,62.686157%);stop-opacity:1;"/>
<stop offset="0.890625" style="stop-color:rgb(61.528015%,62.057495%,63.076782%);stop-opacity:1;"/>
<stop offset="0.90625" style="stop-color:rgb(61.921692%,62.458801%,63.468933%);stop-opacity:1;"/>
<stop offset="0.921875" style="stop-color:rgb(62.319946%,62.863159%,63.864136%);stop-opacity:1;"/>
<stop offset="0.9375" style="stop-color:rgb(62.719727%,63.270569%,64.260864%);stop-opacity:1;"/>
<stop offset="0.953125" style="stop-color:rgb(63.121033%,63.677979%,64.660645%);stop-opacity:1;"/>
<stop offset="0.96875" style="stop-color:rgb(63.394165%,63.955688%,64.932251%);stop-opacity:1;"/>
<stop offset="1" style="stop-color:rgb(63.464355%,64.028931%,65.002441%);stop-opacity:1;"/>
</linearGradient>
</defs>
<g id="surface1">
<path style=" stroke:none;fill-rule:evenodd;fill:rgb(28.619385%,63.041687%,87.121582%);fill-opacity:1;" d="M 291.316406 124.757813 L 275.914063 124.757813 L 275.914063 108.910156 L 291.316406 108.910156 Z M 291.316406 124.757813 "/>
<path style=" stroke:none;fill-rule:evenodd;fill:rgb(28.619385%,63.041687%,87.121582%);fill-opacity:1;" d="M 321.914063 205.277344 L 306.539063 205.277344 L 306.539063 189.410156 L 321.914063 189.410156 Z M 321.914063 205.277344 "/>
<path style=" stroke:none;fill-rule:evenodd;fill:rgb(28.619385%,63.041687%,87.121582%);fill-opacity:1;" d="M 321.914063 155.851563 L 306.539063 155.851563 L 306.539063 140.003906 L 321.914063 140.003906 Z M 321.914063 155.851563 "/>
<path style=" stroke:none;fill-rule:evenodd;fill:rgb(28.619385%,63.041687%,87.121582%);fill-opacity:1;" d="M 337.316406 140.003906 L 321.914063 140.003906 L 321.914063 124.15625 L 337.316406 124.15625 Z M 337.316406 140.003906 "/>
<path style=" stroke:none;fill-rule:evenodd;fill:rgb(28.619385%,63.041687%,87.121582%);fill-opacity:1;" d="M 337.316406 182.421875 L 321.914063 182.421875 L 321.914063 166.574219 L 337.316406 166.574219 Z M 337.316406 182.421875 "/>
<path style=" stroke:none;fill-rule:evenodd;fill:rgb(28.619385%,63.041687%,87.121582%);fill-opacity:1;" d="M 352.695313 162.992188 L 337.316406 162.992188 L 337.316406 147.148438 L 352.695313 147.148438 Z M 352.695313 162.992188 "/>
<path style=" stroke:none;fill-rule:evenodd;fill:rgb(28.619385%,63.041687%,87.121582%);fill-opacity:1;" d="M 275.914063 150.886719 L 291.316406 150.886719 L 291.316406 235.945313 L 306.246094 235.945313 L 306.246094 220.8125 L 322.09375 220.8125 L 322.09375 254.128906 L 337.472656 254.128906 L 337.472656 198.425781 L 352.851563 198.425781 L 352.851563 313.574219 C 352.851563 313.574219 354.945313 360.898438 399.007813 386.539063 C 353.542969 386.539063 275.914063 366.019531 275.914063 274.183594 Z M 275.914063 150.886719 "/>
<g clip-path="url(#clip1)" clip-rule="nonzero">
<g clip-path="url(#clip2)" clip-rule="nonzero">
<path style=" stroke:none;fill-rule:nonzero;fill:url(#linear0);" d="M 360.996094 265.789063 L 360.996094 386.539063 L 529.296875 386.539063 L 529.296875 265.789063 Z M 360.996094 265.789063 "/>
</g>
</g>
<path style=" stroke:none;fill-rule:evenodd;fill:rgb(6.29425%,5.767822%,5.058289%);fill-opacity:1;" d="M 443.054688 331.296875 C 443.054688 331.296875 504.214844 327.78125 522.355469 245.269531 L 522.355469 111.003906 C 522.355469 111.003906 445.394531 102.144531 445.394531 159.03125 C 445.394531 215.917969 443.054688 331.296875 443.054688 331.296875 "/>
<path style=" stroke:none;fill-rule:nonzero;fill:rgb(31.492615%,31.629944%,33.328247%);fill-opacity:1;" d="M 151.527344 431.628906 L 151.527344 492.207031 C 151.527344 515.621094 125.6875 516.242188 125.6875 516.242188 C 125.6875 516.242188 99.847656 515.621094 99.847656 492.207031 L 99.847656 431.628906 C 99.847656 431.628906 98.625 421.121094 84.09375 421.121094 L 84.09375 493.628906 C 84.09375 493.628906 86.699219 529.953125 125.6875 529.953125 C 164.660156 529.953125 167.285156 493.628906 167.285156 493.628906 L 167.285156 421.121094 C 152.753906 421.121094 151.527344 431.628906 151.527344 431.628906 "/>
<path style=" stroke:none;fill-rule:nonzero;fill:rgb(31.492615%,31.629944%,33.328247%);fill-opacity:1;" d="M 527.714844 493.628906 L 527.714844 421.121094 C 513.160156 421.121094 511.957031 431.628906 511.957031 431.628906 L 511.957031 492.207031 C 511.957031 515.621094 486.121094 516.242188 486.121094 516.242188 C 486.121094 516.242188 460.257813 515.621094 460.257813 492.207031 L 460.257813 431.628906 C 460.257813 431.628906 459.035156 421.121094 444.503906 421.121094 L 444.503906 493.628906 C 444.503906 493.628906 447.132813 529.953125 486.121094 529.953125 C 525.066406 529.953125 527.714844 493.628906 527.714844 493.628906 "/>
<path style=" stroke:none;fill-rule:nonzero;fill:rgb(31.492615%,31.629944%,33.328247%);fill-opacity:1;" d="M 294.273438 431.628906 L 294.273438 528.660156 L 310.03125 528.660156 L 310.03125 421.121094 C 295.496094 421.121094 294.273438 431.628906 294.273438 431.628906 "/>
<path style=" stroke:none;fill-rule:nonzero;fill:rgb(31.492615%,31.629944%,33.328247%);fill-opacity:1;" d="M 555.378906 431.628906 L 555.378906 528.660156 L 571.136719 528.660156 L 571.136719 421.121094 C 556.582031 421.121094 555.378906 431.628906 555.378906 431.628906 "/>
<path style=" stroke:none;fill-rule:nonzero;fill:rgb(31.492615%,31.629944%,33.328247%);fill-opacity:1;" d="M 693.476563 493.628906 L 693.476563 421.121094 C 678.941406 421.121094 677.738281 431.628906 677.738281 431.628906 L 677.738281 528.660156 L 693.476563 528.660156 Z M 693.476563 493.628906 "/>
<path style=" stroke:none;fill-rule:nonzero;fill:rgb(31.492615%,31.629944%,33.328247%);fill-opacity:1;" d="M 237.945313 515.933594 L 209.679688 515.933594 L 209.679688 479.875 L 238.570313 479.875 C 240.972656 479.875 253.390625 482.011719 253.390625 497.90625 C 253.390625 513.792969 237.945313 515.933594 237.945313 515.933594 M 209.679688 435.277344 L 233.714844 435.277344 C 237.945313 435.277344 249.652344 436.476563 249.652344 451.433594 C 249.652344 466.390625 233.917969 467.195313 233.917969 467.195313 L 209.679688 467.195313 Z M 268.4375 502.3125 C 268.4375 481.925781 256.507813 473.246094 250.273438 473.246094 C 250.273438 473.246094 265.410156 466.167969 265.410156 448.808594 C 265.410156 431.445313 249.875 421.121094 234.917969 421.121094 L 194.636719 421.121094 L 194.636719 528.660156 L 246.132813 528.660156 C 246.132813 528.660156 268.4375 522.695313 268.4375 502.3125 "/>
<path style=" stroke:none;fill-rule:nonzero;fill:rgb(31.492615%,31.629944%,33.328247%);fill-opacity:1;" d="M 376.777344 516.46875 C 356.078125 516.46875 346.171875 498.125 346.171875 475.5625 C 346.171875 452.949219 355.878906 434.65625 376.777344 434.65625 C 397.671875 434.65625 407.355469 452.949219 407.355469 475.5625 C 407.355469 498.125 397.46875 516.46875 376.777344 516.46875 M 427.253906 514.730469 L 407.863281 514.730469 C 407.863281 514.730469 423.316406 500.171875 423.316406 476.273438 C 423.316406 452.324219 412.519531 421.121094 375.664063 421.121094 C 375.664063 421.121094 332.867188 418.410156 329.617188 474.894531 C 329.617188 530.175781 375.664063 528.660156 375.664063 528.660156 C 388.972656 526.527344 401.5 526.925781 411.585938 526.925781 L 436.644531 526.925781 C 436.644531 526.925781 435.578125 514.730469 427.253906 514.730469 "/>
<path style=" stroke:none;fill-rule:nonzero;fill:rgb(31.492615%,31.629944%,33.328247%);fill-opacity:1;" d="M 586.714844 421.121094 L 586.714844 434.609375 L 618.828125 434.609375 L 618.828125 528.660156 L 633.832031 528.660156 L 633.832031 434.609375 L 664.410156 434.609375 L 664.410156 421.121094 Z M 586.714844 421.121094 "/>
<path style=" stroke:none;fill-rule:nonzero;fill:rgb(31.492615%,31.629944%,33.328247%);fill-opacity:1;" d="M 108.207031 584.296875 L 108.117188 584.296875 L 93.769531 561.144531 L 87.957031 561.144531 L 87.957031 592.570313 L 93.195313 592.570313 L 93.195313 569.460938 L 93.328125 569.460938 L 107.632813 592.570313 L 113.445313 592.570313 L 113.445313 561.144531 L 108.207031 561.144531 Z M 108.207031 584.296875 "/>
<path style=" stroke:none;fill-rule:nonzero;fill:rgb(31.492615%,31.629944%,33.328247%);fill-opacity:1;" d="M 176.617188 578.617188 L 192.464844 578.617188 L 192.464844 574.128906 L 176.617188 574.128906 L 176.617188 565.898438 L 193.742188 565.898438 L 193.742188 561.140625 L 171.113281 561.140625 L 171.113281 592.570313 L 194.050781 592.570313 L 194.050781 587.816406 L 176.617188 587.816406 Z M 176.617188 578.617188 "/>
<path style=" stroke:none;fill-rule:nonzero;fill:rgb(31.492615%,31.629944%,33.328247%);fill-opacity:1;" d="M 248.402344 565.898438 L 258.351563 565.898438 L 258.351563 592.570313 L 263.855469 592.570313 L 263.855469 565.898438 L 273.847656 565.898438 L 273.847656 561.140625 L 248.402344 561.140625 Z M 248.402344 565.898438 "/>
<path style=" stroke:none;fill-rule:nonzero;fill:rgb(31.492615%,31.629944%,33.328247%);fill-opacity:1;" d="M 357.835938 585.175781 L 357.75 585.175781 L 351.585938 561.144531 L 345.953125 561.144531 L 339.613281 585.175781 L 339.523438 585.175781 L 333.847656 561.144531 L 328.257813 561.144531 L 336.53125 592.570313 L 342.210938 592.570313 L 348.636719 568.539063 L 348.722656 568.539063 L 355.019531 592.570313 L 360.609375 592.570313 L 369.28125 561.144531 L 363.691406 561.144531 Z M 357.835938 585.175781 "/>
<path style=" stroke:none;fill-rule:nonzero;fill:rgb(31.492615%,31.629944%,33.328247%);fill-opacity:1;" d="M 435.960938 588.828125 C 429.226563 588.828125 426.410156 582.890625 426.410156 576.855469 C 426.410156 570.828125 429.226563 564.886719 435.960938 564.886719 C 442.695313 564.886719 445.511719 570.828125 445.511719 576.855469 C 445.511719 582.890625 442.695313 588.828125 435.960938 588.828125 M 435.960938 560.394531 C 426.539063 560.394531 420.90625 567.878906 420.90625 576.855469 C 420.90625 585.835938 426.539063 593.320313 435.960938 593.320313 C 445.378906 593.320313 451.015625 585.835938 451.015625 576.855469 C 451.015625 567.878906 445.378906 560.394531 435.960938 560.394531 "/>
<path style=" stroke:none;fill-rule:nonzero;fill:rgb(31.492615%,31.629944%,33.328247%);fill-opacity:1;" d="M 523.203125 575.617188 L 514.175781 575.617188 L 514.175781 565.800781 L 523.113281 565.800781 C 525.972656 565.800781 528.570313 566.59375 528.570313 570.597656 C 528.570313 573.902344 526.679688 575.617188 523.203125 575.617188 M 528.878906 577.820313 L 528.878906 577.730469 C 529.890625 577.378906 534.074219 575.839844 534.074219 569.808594 C 534.074219 564.480469 530.550781 561.3125 523.6875 561.3125 L 508.675781 561.3125 L 508.675781 592.742188 L 514.175781 592.742188 L 514.175781 579.800781 L 522.277344 579.800781 C 527.339844 579.800781 528.527344 582.351563 528.527344 588.117188 C 528.527344 589.660156 528.527344 591.375 529.363281 592.742188 L 535.261719 592.742188 C 534.074219 591.464844 533.546875 588.117188 533.546875 584.464844 C 533.546875 579.492188 530.773438 578.082031 528.878906 577.820313 "/>
<path style=" stroke:none;fill-rule:nonzero;fill:rgb(31.492615%,31.629944%,33.328247%);fill-opacity:1;" d="M 617.269531 561.3125 L 610.492188 561.3125 L 596.492188 575.621094 L 596.492188 561.3125 L 590.992188 561.3125 L 590.992188 592.742188 L 596.492188 592.742188 L 596.492188 582.175781 L 600.984375 577.730469 L 611.28125 592.742188 L 618.148438 592.742188 L 604.722656 573.855469 Z M 617.269531 561.3125 "/>
<path style=" stroke:none;fill-rule:nonzero;fill:rgb(31.492615%,31.629944%,33.328247%);fill-opacity:1;" d="M 689.554688 575.617188 C 687.929688 575.136719 680.972656 573.328125 680.488281 573.195313 C 678.242188 572.582031 676.746094 571.347656 676.746094 569.148438 C 676.746094 565.976563 679.960938 565.054688 682.515625 565.054688 C 686.300781 565.054688 689.027344 566.550781 689.292969 570.597656 L 694.796875 570.597656 C 694.796875 564.042969 689.292969 560.5625 682.734375 560.5625 C 677.054688 560.5625 671.246094 563.515625 671.246094 569.808594 C 671.246094 573.0625 672.832031 576.320313 678.199219 577.773438 C 682.515625 578.964844 685.375 579.535156 687.578125 580.371094 C 688.851563 580.855469 690.171875 581.824219 690.171875 584.246094 C 690.171875 586.621094 688.367188 589 683.527344 589 C 679.125 589 675.558594 587.105469 675.558594 582.265625 L 670.058594 582.265625 C 670.191406 590.058594 676 593.488281 683.175781 593.488281 C 689.425781 593.488281 695.675781 590.671875 695.675781 583.628906 C 695.675781 580.371094 693.695313 576.851563 689.554688 575.617188 "/>
</g>
</svg>
